<svg data-v-423bf9ae="" xmlns="http://www.w3.org/2000/svg" viewBox="0 0 488 90" class="iconLeft"><!----><!----><!----><g data-v-423bf9ae="" id="9427505f-23ab-4b30-9d7f-164122d817ca" fill="black" transform="matrix(5.797101020812988,0,0,5.797101020812988,110.71966552734375,-2.333329677581787)"><path d="M3.97 6.36C3.18 6.36 2.65 6.74 2.27 7.41L2.10 6.53L0.88 6.53L0.88 13.15L2.29 13.15L2.29 9.70C2.29 8.62 2.86 7.66 3.89 7.66C4.13 7.66 4.35 7.70 4.54 7.79L4.96 6.58C4.78 6.47 4.40 6.36 3.97 6.36ZM11.91 9.70C11.91 7.73 10.59 6.36 8.66 6.36C6.68 6.36 5.25 7.89 5.25 9.84C5.25 11.80 6.66 13.31 8.84 13.31C9.97 13.31 10.94 12.92 11.54 12.25L10.56 11.46C10.14 11.94 9.57 12.19 8.82 12.19C7.58 12.19 6.84 11.33 6.74 10.15L11.91 10.15ZM8.66 7.50C9.70 7.50 10.37 8.12 10.51 9.17L6.80 9.17C7 8.17 7.69 7.50 8.66 7.50ZM16.44 13.34C17.35 13.34 18.10 13.07 18.71 12.60L17.89 11.58C17.53 11.93 17.02 12.13 16.46 12.13C15.17 12.13 14.39 11.14 14.39 9.84C14.39 8.55 15.17 7.57 16.46 7.57C17.02 7.57 17.53 7.77 17.89 8.12L18.71 7.10C18.10 6.64 17.35 6.36 16.44 6.36C14.38 6.36 12.95 7.89 12.95 9.84C12.95 11.81 14.38 13.34 16.44 13.34ZM22.91 6.36C22.12 6.36 21.60 6.74 21.22 7.41L21.04 6.53L19.82 6.53L19.82 13.15L21.23 13.15L21.23 9.70C21.23 8.62 21.80 7.66 22.84 7.66C23.07 7.66 23.29 7.70 23.48 7.79L23.90 6.58C23.73 6.47 23.35 6.36 22.91 6.36ZM27.68 13.33C29.12 13.33 30.64 12.67 30.64 10.31L30.64 6.53L29.23 6.53L29.23 10.32C29.23 11.43 28.69 12.12 27.68 12.12C26.67 12.12 26.13 11.43 26.13 10.32L26.13 6.53L24.72 6.53L24.72 10.31C24.72 12.67 26.24 13.33 27.68 13.33ZM33.16 5.26C33.67 5.26 34.08 4.86 34.08 4.36C34.08 3.86 33.67 3.46 33.16 3.46C32.67 3.46 32.26 3.86 32.26 4.36C32.26 4.86 32.67 5.26 33.16 5.26ZM32.49 13.15L33.88 13.15L33.88 6.53L32.49 6.53ZM38.95 6.53L37.54 6.53L37.54 4.64L36.14 4.64L36.14 6.53L35.26 6.53L35.26 7.67L36.14 7.67L36.14 13.15L37.55 13.15L37.54 7.67L38.95 7.67ZM42.51 4.20C42.70 4.20 42.95 4.27 43.17 4.43L43.78 3.40C43.31 3.12 42.92 2.99 42.36 2.99C41.18 2.99 40.35 3.81 40.35 5.40L40.35 6.53L39.48 6.53L39.48 7.67L40.35 7.67L40.35 13.15L41.75 13.15L41.75 7.67L43.14 7.67L43.14 6.53L41.75 6.53L41.75 5.29C41.75 4.65 41.94 4.20 42.51 4.20ZM44.27 13.15L45.69 13.15L45.69 3.24L44.27 3.24ZM50.69 13.34C52.78 13.34 54.24 11.81 54.24 9.84C54.24 7.89 52.78 6.36 50.69 6.36C48.58 6.36 47.13 7.89 47.13 9.84C47.13 11.81 48.58 13.34 50.69 13.34ZM50.69 12.13C49.47 12.13 48.61 11.14 48.61 9.84C48.61 8.56 49.47 7.57 50.69 7.57C51.90 7.57 52.76 8.56 52.76 9.84C52.76 11.14 51.90 12.13 50.69 12.13ZM63.47 6.53L61.86 11.33L60.39 6.53L59.21 6.53L57.74 11.33L56.12 6.53L54.61 6.53L57.12 13.15L58.30 13.15L59.81 8.17L61.29 13.15L62.48 13.15L64.98 6.53Z"></path></g><!----><g data-v-423bf9ae="" id="bee0afc9-85ee-4121-8698-b45033895044" transform="matrix(2.994410514831543,0,0,2.994410514831543,0.0894317626953125,-1.938568115234375)" stroke="none" fill="black"><path d="M17.572 23.933l4.106 7.095L32 13.189h-8.981V7.582L11.51.972 0 7.582v13.222l11.51 6.611 6.062-3.482zm10.96-8.744l-6.855 11.846-6.855-11.846h13.71z"></path></g><!----></svg>